<mxfile host="app.diagrams.net" agent="Mozilla/5.0 (Windows NT 10.0; Win64; x64) AppleWebKit/537.36 (KHTML, like Gecko) Chrome/129.0.0.0 Safari/537.36" version="24.7.17">
  <diagram name="Página-1" id="oOIhem4UatiDmqYzKoER">
    <mxGraphModel dx="880" dy="434" grid="1" gridSize="10" guides="1" tooltips="1" connect="1" arrows="1" fold="1" page="1" pageScale="1" pageWidth="827" pageHeight="1169" math="0" shadow="0">
      <root>
        <mxCell id="0" />
        <mxCell id="1" parent="0" />
        <mxCell id="t9eHsuV-kFO3bZGe2y-k-16" value="" style="rounded=0;whiteSpace=wrap;html=1;" vertex="1" parent="1">
          <mxGeometry x="560" y="200" width="100" height="60" as="geometry" />
        </mxCell>
        <mxCell id="t9eHsuV-kFO3bZGe2y-k-18" style="edgeStyle=orthogonalEdgeStyle;rounded=0;orthogonalLoop=1;jettySize=auto;html=1;exitX=1;exitY=0.5;exitDx=0;exitDy=0;strokeWidth=3;" edge="1" parent="1" source="t9eHsuV-kFO3bZGe2y-k-1" target="t9eHsuV-kFO3bZGe2y-k-4">
          <mxGeometry relative="1" as="geometry" />
        </mxCell>
        <mxCell id="t9eHsuV-kFO3bZGe2y-k-23" style="edgeStyle=orthogonalEdgeStyle;rounded=0;orthogonalLoop=1;jettySize=auto;html=1;exitX=0.5;exitY=1;exitDx=0;exitDy=0;entryX=0.5;entryY=0;entryDx=0;entryDy=0;" edge="1" parent="1" source="t9eHsuV-kFO3bZGe2y-k-1" target="t9eHsuV-kFO3bZGe2y-k-13">
          <mxGeometry relative="1" as="geometry" />
        </mxCell>
        <mxCell id="t9eHsuV-kFO3bZGe2y-k-26" style="edgeStyle=orthogonalEdgeStyle;rounded=0;orthogonalLoop=1;jettySize=auto;html=1;exitX=0.25;exitY=0;exitDx=0;exitDy=0;entryX=0.5;entryY=0;entryDx=0;entryDy=0;dashed=1;strokeWidth=2;" edge="1" parent="1" source="t9eHsuV-kFO3bZGe2y-k-1" target="t9eHsuV-kFO3bZGe2y-k-9">
          <mxGeometry relative="1" as="geometry">
            <Array as="points">
              <mxPoint x="85" y="40" />
              <mxPoint x="610" y="40" />
            </Array>
          </mxGeometry>
        </mxCell>
        <mxCell id="t9eHsuV-kFO3bZGe2y-k-1" value="" style="rounded=0;whiteSpace=wrap;html=1;" vertex="1" parent="1">
          <mxGeometry x="60" y="90" width="100" height="40" as="geometry" />
        </mxCell>
        <mxCell id="t9eHsuV-kFO3bZGe2y-k-20" style="edgeStyle=orthogonalEdgeStyle;rounded=0;orthogonalLoop=1;jettySize=auto;html=1;entryX=0.5;entryY=0;entryDx=0;entryDy=0;fontSize=11;strokeWidth=3;" edge="1" parent="1" target="t9eHsuV-kFO3bZGe2y-k-7">
          <mxGeometry relative="1" as="geometry">
            <mxPoint x="110" y="90" as="sourcePoint" />
            <Array as="points">
              <mxPoint x="110" y="70" />
              <mxPoint x="420" y="70" />
            </Array>
          </mxGeometry>
        </mxCell>
        <mxCell id="t9eHsuV-kFO3bZGe2y-k-2" value="Finanzas" style="text;html=1;align=center;verticalAlign=middle;whiteSpace=wrap;rounded=0;" vertex="1" parent="1">
          <mxGeometry x="80" y="95" width="60" height="30" as="geometry" />
        </mxCell>
        <mxCell id="t9eHsuV-kFO3bZGe2y-k-24" style="edgeStyle=orthogonalEdgeStyle;rounded=0;orthogonalLoop=1;jettySize=auto;html=1;exitX=0.5;exitY=1;exitDx=0;exitDy=0;entryX=1;entryY=0.25;entryDx=0;entryDy=0;" edge="1" parent="1" source="t9eHsuV-kFO3bZGe2y-k-4" target="t9eHsuV-kFO3bZGe2y-k-13">
          <mxGeometry relative="1" as="geometry" />
        </mxCell>
        <mxCell id="t9eHsuV-kFO3bZGe2y-k-27" style="edgeStyle=orthogonalEdgeStyle;rounded=0;orthogonalLoop=1;jettySize=auto;html=1;exitX=0.75;exitY=1;exitDx=0;exitDy=0;entryX=0;entryY=0.5;entryDx=0;entryDy=0;dashed=1;strokeWidth=2;" edge="1" parent="1" source="t9eHsuV-kFO3bZGe2y-k-4" target="t9eHsuV-kFO3bZGe2y-k-16">
          <mxGeometry relative="1" as="geometry" />
        </mxCell>
        <mxCell id="t9eHsuV-kFO3bZGe2y-k-4" value="" style="rounded=0;whiteSpace=wrap;html=1;" vertex="1" parent="1">
          <mxGeometry x="210" y="90" width="100" height="40" as="geometry" />
        </mxCell>
        <mxCell id="t9eHsuV-kFO3bZGe2y-k-5" value="Inventarios" style="text;html=1;align=center;verticalAlign=middle;whiteSpace=wrap;rounded=0;" vertex="1" parent="1">
          <mxGeometry x="230" y="95" width="60" height="30" as="geometry" />
        </mxCell>
        <mxCell id="t9eHsuV-kFO3bZGe2y-k-25" style="edgeStyle=orthogonalEdgeStyle;rounded=0;orthogonalLoop=1;jettySize=auto;html=1;exitX=0.5;exitY=1;exitDx=0;exitDy=0;entryX=1;entryY=0.75;entryDx=0;entryDy=0;" edge="1" parent="1" source="t9eHsuV-kFO3bZGe2y-k-7" target="t9eHsuV-kFO3bZGe2y-k-13">
          <mxGeometry relative="1" as="geometry" />
        </mxCell>
        <mxCell id="t9eHsuV-kFO3bZGe2y-k-7" value="" style="rounded=0;whiteSpace=wrap;html=1;" vertex="1" parent="1">
          <mxGeometry x="370" y="90" width="100" height="40" as="geometry" />
        </mxCell>
        <mxCell id="t9eHsuV-kFO3bZGe2y-k-21" style="edgeStyle=orthogonalEdgeStyle;rounded=0;orthogonalLoop=1;jettySize=auto;html=1;exitX=0.5;exitY=1;exitDx=0;exitDy=0;entryX=0.5;entryY=0;entryDx=0;entryDy=0;strokeWidth=3;" edge="1" parent="1" source="t9eHsuV-kFO3bZGe2y-k-9" target="t9eHsuV-kFO3bZGe2y-k-16">
          <mxGeometry relative="1" as="geometry" />
        </mxCell>
        <mxCell id="t9eHsuV-kFO3bZGe2y-k-9" value="" style="rounded=0;whiteSpace=wrap;html=1;" vertex="1" parent="1">
          <mxGeometry x="560" y="80" width="100" height="60" as="geometry" />
        </mxCell>
        <mxCell id="t9eHsuV-kFO3bZGe2y-k-11" value="Recursos Humanos" style="text;html=1;align=center;verticalAlign=middle;whiteSpace=wrap;rounded=0;" vertex="1" parent="1">
          <mxGeometry x="390" y="95" width="60" height="30" as="geometry" />
        </mxCell>
        <mxCell id="t9eHsuV-kFO3bZGe2y-k-12" value="Gestión de Usuarios" style="text;html=1;align=center;verticalAlign=middle;whiteSpace=wrap;rounded=0;" vertex="1" parent="1">
          <mxGeometry x="570" y="85" width="80" height="50" as="geometry" />
        </mxCell>
        <mxCell id="t9eHsuV-kFO3bZGe2y-k-13" value="" style="rounded=0;whiteSpace=wrap;html=1;" vertex="1" parent="1">
          <mxGeometry x="60" y="210" width="100" height="60" as="geometry" />
        </mxCell>
        <mxCell id="t9eHsuV-kFO3bZGe2y-k-14" value="Informes y Reportes" style="text;html=1;align=center;verticalAlign=middle;whiteSpace=wrap;rounded=0;" vertex="1" parent="1">
          <mxGeometry x="70" y="215" width="80" height="50" as="geometry" />
        </mxCell>
        <mxCell id="t9eHsuV-kFO3bZGe2y-k-15" value="Autenticación y Seguridad" style="text;html=1;align=center;verticalAlign=middle;whiteSpace=wrap;rounded=0;" vertex="1" parent="1">
          <mxGeometry x="580" y="220" width="60" height="30" as="geometry" />
        </mxCell>
      </root>
    </mxGraphModel>
  </diagram>
</mxfile>
